<svg width="199" height="39" viewBox="0 0 199 39" fill="none" xmlns="http://www.w3.org/2000/svg">
<path d="M166.949 38.0459C164.447 38.2063 162.214 37.7376 160.041 36.907C155.091 35.0116 151.509 31.6031 149.413 26.7185C145.307 17.1508 149.295 6.48127 158.38 1.9873C163.221 -0.405646 168.249 -0.627672 173.317 1.26777C175.404 2.04897 177.313 3.16321 178.942 4.75851C170.304 4.96409 163.765 8.6234 160.756 16.9206C157.759 25.1767 160.293 32.2445 166.953 38.0418L166.949 38.0459Z" fill="#060C16"/>
<path d="M180.86 38.2555C180.015 38.3859 179.361 38.5372 178.7 38.5835C171.631 39.088 165.479 34.4842 163.609 27.2946C161.4 18.8102 166.703 9.98511 174.928 8.41686C180.904 7.27747 186.566 9.98931 189.791 15.1818C189.911 15.371 189.947 15.6148 190.027 15.8334C189.811 15.8965 189.6 16.0016 189.385 16.01C183.273 16.2833 178.349 20.8409 177.495 27.1727C176.977 31.024 177.934 34.5094 180.334 37.5198C180.478 37.7006 180.605 37.894 180.864 38.2597L180.86 38.2555Z" fill="#060C16"/>
<path d="M15.3613 17.3756C15.2926 18.522 15.2239 19.6643 15.1512 20.8106C15.1027 21.5708 15.3088 21.805 16.0846 21.8748C17.0827 21.9611 17.3858 21.7844 17.41 20.9586C17.4706 19.163 17.4828 17.3633 17.5151 15.5677C17.5232 15.1568 17.507 14.7419 17.5393 14.3351C17.6282 13.1887 18.2263 12.371 19.3375 12.1861C20.2467 12.0382 21.2044 12.0341 22.1217 12.141C22.8773 12.2272 23.4794 12.7614 23.6612 13.538C24.3239 16.3484 24.6189 19.2041 23.7057 21.9981C22.7803 24.8209 20.5255 26.0659 17.7979 26.5384C15.9149 26.8671 14.1369 26.4973 12.5408 25.4043C12.1811 25.1619 11.9144 25.166 11.5629 25.4125C8.41505 27.5944 4.05091 26.6822 1.63851 24.1511C0.68891 23.1527 0.0787385 21.8913 0.0302481 20.5436C-0.0424875 18.4973 0.0100438 16.4265 0.252496 14.3967C0.470703 12.5806 1.42435 11.9478 3.22657 11.9725C3.5256 11.9766 3.82462 11.9807 4.12365 12.0218C5.78444 12.2396 6.54413 13.0942 6.56433 14.7871C6.58453 16.6936 6.56433 18.6001 6.59262 20.5066C6.60878 21.7064 6.98862 22.0145 8.14027 21.8625C8.72215 21.7844 8.98885 21.5091 8.96056 20.8682C8.88379 19.011 8.85146 17.1496 8.81105 15.2924C8.80701 15.0993 8.81913 14.9021 8.84338 14.709C9.10604 12.7285 9.92633 11.9971 11.8983 11.9684C14.2783 11.9355 15.0017 12.5601 15.236 14.9678C15.3128 15.7609 15.2482 16.5703 15.2482 17.3715C15.2845 17.3715 15.3209 17.3715 15.3573 17.3715L15.3613 17.3756Z" fill="#060C16"/>
<path d="M189.767 38.6169C184.678 38.6169 180.533 34.3555 180.525 29.1164C180.517 23.9233 184.723 19.5867 189.767 19.5825C194.875 19.5825 199.008 23.8607 199 29.154C198.992 34.4265 194.899 38.6211 189.763 38.6211L189.767 38.6169Z" fill="#060C16"/>
<path d="M126.209 26.194C125.728 26.3346 125.263 26.4793 124.794 26.6076C121.08 27.6249 117.961 25.6439 117.406 21.7853C117.043 19.2543 117.121 16.6943 117.655 14.1798C118.001 12.542 118.768 11.9672 120.436 11.9672C120.607 11.9672 120.782 11.9672 120.953 11.9754C123 12.0706 123.848 12.9308 123.885 14.9904C123.913 16.8887 123.897 18.7828 123.934 20.6811C123.954 21.715 124.447 22.1245 125.414 22.0128C125.923 21.9549 126.262 21.7067 126.319 21.1608C126.364 20.7266 126.429 20.2965 126.437 19.8622C126.458 18.1831 126.441 16.504 126.462 14.8249C126.482 13.1334 127.208 12.2815 128.855 12.0457C129.365 11.9713 129.891 11.9589 130.4 12.0002C131.611 12.1036 132.41 12.7571 132.712 13.944C132.883 14.614 133.03 15.3212 133.018 16.0036C132.953 19.2708 132.896 22.538 132.692 25.797C132.59 27.4554 132.06 29.0476 131.057 30.4248C129.695 32.2941 127.775 33.0179 125.565 33.1585C124.011 33.2578 122.515 33.0386 121.063 32.4678C119.852 31.9922 118.915 31.1734 118.201 30.1105C117.961 29.7507 117.793 29.2751 117.773 28.845C117.74 27.9558 118.491 27.3685 119.339 27.6125C119.869 27.7656 120.374 28.0344 120.864 28.3032C121.805 28.8202 122.764 29.2255 123.873 29.1055C125.446 28.936 126.299 27.9103 126.209 26.1981V26.194Z" fill="#060C16"/>
<path d="M93.9927 12.6777C94.0089 12.4598 94.0373 12.213 94.0413 11.9663C94.0616 10.9052 94.0494 9.84009 94.098 8.78317C94.1952 6.60354 95.3818 5.46026 97.5363 5.4397C97.8765 5.4397 98.2207 5.4726 98.5569 5.53429C99.9297 5.78926 100.57 6.48428 100.728 7.88253C100.78 8.35547 100.809 8.83252 100.813 9.30957C100.821 13.3398 100.825 17.3742 100.809 21.4045C100.809 22.1817 100.728 22.9631 100.61 23.7322C100.436 24.896 99.9014 25.8624 98.731 26.2285C97.4715 26.6191 96.208 26.5533 95.1591 25.6363C94.8067 25.3278 94.584 25.3319 94.2195 25.554C92.7373 26.4629 91.1052 26.7919 89.4084 26.6027C87.5252 26.393 86.1645 25.2538 85.4395 23.5594C84.0221 20.2489 84.0748 16.9342 86.0065 13.8004C87.0797 12.0608 89.0884 11.2548 91.1579 11.7195C92.1015 11.9292 93.0046 12.3405 93.9887 12.6859L93.9927 12.6777ZM94.1102 19.1508H94.1021C94.1021 18.4147 94.1021 17.6785 94.1021 16.9465C94.1021 16.1816 93.7902 15.7128 93.203 15.5729C92.6037 15.429 92.1663 15.6346 91.822 16.3461C90.9432 18.1597 90.9513 20.0103 91.6843 21.8692C91.7451 22.0255 91.8544 22.1694 91.9557 22.3092C92.3283 22.8151 92.8466 22.7904 93.3488 22.6177C93.8186 22.4532 94.1304 22.1283 94.1183 21.5525C94.098 20.7547 94.1142 19.9528 94.1142 19.1508H94.1102Z" fill="#060C16"/>
<path d="M62.1314 13.0644C63.0599 11.6518 64.374 11.4357 65.8375 11.7432C67.1476 12.0174 67.8283 12.7819 68.0014 14.182C68.0722 14.7429 68.084 15.3163 68.0879 15.8855C68.0958 18.0543 68.0879 20.2231 68.0879 22.3878C68.0879 22.4958 68.0879 22.608 68.0879 22.716C68.1863 25.8404 66.8211 26.9207 63.5989 26.2767C63.1937 26.1936 62.7688 25.9567 62.458 25.6659C62.1668 25.3958 61.9819 25.4374 61.6987 25.5994C60.6285 26.2268 59.4797 26.5509 58.2522 26.6381C56.0608 26.7919 54.3809 25.8238 53.4091 23.842C51.8275 20.6137 51.8748 17.2815 53.5508 14.0989C55.0537 11.2446 57.847 10.8831 60.3689 12.034C60.9708 12.3082 61.5216 12.7071 62.1314 13.0686V13.0644ZM61.679 19.1055C61.679 18.2745 61.679 17.4436 61.679 16.6168C61.679 15.9561 61.3052 15.6196 60.7584 15.4783C60.1367 15.3163 59.6804 15.5781 59.3578 16.3716C58.6299 18.1623 58.6339 19.978 59.3184 21.7853C59.3774 21.9432 59.4719 22.0969 59.5741 22.234C59.9282 22.7202 60.4121 22.7908 60.9157 22.5997C61.3918 22.4169 61.7065 22.0762 61.6869 21.4696C61.6632 20.6843 61.679 19.899 61.679 19.1096V19.1055Z" fill="#060C16"/>
<path d="M44.1279 22.6423C45.1618 22.6423 46.0107 22.6382 46.8555 22.6423C47.3221 22.6423 47.7928 22.6341 48.2555 22.6874C49.7439 22.8596 50.5324 24.1228 49.9572 25.5294C49.8043 25.9026 49.3457 26.284 48.9555 26.3866C48.2273 26.5793 47.4428 26.6285 46.6825 26.6326C44.0032 26.6572 41.3239 26.5998 38.6487 26.6531C35.6194 26.7105 34.6781 24.1392 35.8608 21.7113C36.1384 21.1454 36.6131 20.6656 37.0435 20.1939C38.174 18.9595 39.3286 17.7497 40.4711 16.5317C40.5998 16.3922 40.7165 16.2446 40.9297 15.9862C40.5998 15.9657 40.3826 15.9452 40.1653 15.9411C39.3567 15.9165 38.5441 15.9657 37.7476 15.8591C36.3355 15.6704 35.7401 14.8133 35.9211 13.4189C36.0137 12.7218 36.3596 12.2378 37.0596 12.123C37.6027 12.0328 38.1579 11.9795 38.705 11.9754C41.5975 11.9631 44.486 11.9754 47.3785 11.9672C48.3641 11.9672 49.2813 12.1394 49.7802 13.1032C50.3233 14.153 50.2388 15.2439 49.6595 16.261C49.3859 16.7408 49.0158 17.1755 48.6457 17.5897C47.3141 19.0784 45.9664 20.5466 44.6268 22.023C44.49 22.1747 44.3613 22.3388 44.1199 22.63L44.1279 22.6423Z" fill="#060C16"/>
<path d="M76.734 13.1036C77.8491 12.705 78.779 12.2284 79.7572 12.0517C82.2087 11.6162 83.8029 13.383 83.3117 15.8646C82.9494 17.6848 81.0011 18.4942 79.4915 17.4547C79.3667 17.3684 79.2459 17.2821 79.1292 17.1876C78.6944 16.8425 78.2315 16.7069 77.7001 16.9493C77.1768 17.1917 77.3298 17.6766 77.3258 18.0874C77.3137 19.8213 77.3298 21.5511 77.3177 23.2849C77.2976 25.6721 76.5247 26.7855 73.6665 26.6417C71.6981 26.5431 71.0338 25.9186 70.8366 23.9341C70.7037 22.6029 70.7601 21.2511 70.748 19.9117C70.7359 18.4161 70.7158 16.9206 70.7561 15.4291C70.7963 14.0034 71.2432 12.7749 72.6682 12.1914C73.9443 11.6696 75.7639 12.0928 76.73 13.1036C76.7743 13.1488 76.8306 13.1775 76.73 13.1036H76.734Z" fill="#060C16"/>
<path d="M109.448 13.0745C110.55 12.6876 111.523 12.1855 112.544 12.0208C114.998 11.6298 116.597 13.4984 116.003 15.9226C115.551 17.7583 113.65 18.4785 112.132 17.3961C111.922 17.2479 111.721 17.0792 111.495 16.9639C110.695 16.5482 110.037 16.9516 110.029 17.8447C110.013 19.8614 110.037 21.8782 109.969 23.8949C109.908 25.6441 109.174 26.4097 107.482 26.6114C107.022 26.669 106.546 26.6649 106.082 26.6196C104.35 26.455 103.547 25.6853 103.511 23.9196C103.446 20.9274 103.442 17.9352 103.498 14.9431C103.535 13.1156 104.839 11.9509 106.631 11.9673C107.93 11.9756 108.633 12.2678 109.448 13.0786V13.0745Z" fill="#060C16"/>
<path d="M33.1311 19.368C33.1311 21.0598 33.2233 22.7558 33.1018 24.4353C33.0096 25.7567 32.2514 26.4153 30.9235 26.5841C30.2491 26.6705 29.5537 26.6747 28.8793 26.6088C27.4634 26.4688 26.7346 25.7526 26.5335 24.3736C26.4539 23.8384 26.4078 23.2951 26.4036 22.7558C26.3911 20.4341 26.3869 18.1125 26.4036 15.7908C26.4078 15.2762 26.4497 14.7411 26.5963 14.2471C26.9272 13.1357 27.6352 12.3165 28.8458 12.0901C30.1779 11.8431 31.5435 11.8884 32.4567 12.9834C32.9175 13.535 33.1311 14.3953 33.1939 15.1404C33.307 16.5441 33.2274 17.9602 33.2274 19.368C33.1939 19.368 33.1646 19.368 33.1311 19.368Z" fill="#060C16"/>
<path d="M141.987 19.3561C141.987 23.1669 142.003 26.9736 141.971 30.7845C141.966 31.3717 141.839 32.0041 141.589 32.5297C141.175 33.3962 140.212 33.3962 139.765 32.5461C139.523 32.0862 139.371 31.5195 139.371 31.0021C139.347 23.208 139.347 15.418 139.371 7.62389C139.371 7.06951 139.572 6.46175 139.851 5.97719C140.253 5.27087 141.085 5.25445 141.479 5.96487C141.778 6.50282 141.958 7.18039 141.966 7.80047C142.007 11.6524 141.987 15.5042 141.987 19.3602V19.3561Z" fill="#060C16"/>
<path d="M29.9359 4.89563C30.7025 5.13242 31.5108 5.27813 32.2274 5.63331C33.1524 6.09322 33.319 7.05858 33.2357 8.07858C33.1566 9.03483 32.7024 9.70421 31.8608 9.98198C30.4776 10.4419 29.0902 10.5056 27.7361 9.85448C26.1112 9.07126 25.9237 6.87644 27.3736 5.73804C27.9819 5.25992 28.7027 5.06867 29.8859 5.06867C29.9026 5.00947 29.9151 4.95027 29.9318 4.89563H29.9359Z" fill="#060C16"/>
</svg>
